<?xml version="1.0" standalone="no"?>
<!DOCTYPE svg PUBLIC "-//W3C//DTD SVG 20010904//EN"
 "http://www.w3.org/TR/2001/REC-SVG-20010904/DTD/svg10.dtd">
<svg version="1.0" xmlns="http://www.w3.org/2000/svg"
 width="513.000000pt" height="513.000000pt" viewBox="0 0 513.000000 513.000000"
 preserveAspectRatio="xMidYMid meet">
<metadata>
Created by potrace 1.14, written by Peter Selinger 2001-2017
</metadata>
<g transform="translate(0.000000,513.000000) scale(0.100000,-0.100000)"
fill="#000000" stroke="none">
<path d="M1635 5027 c-94 -9 -244 -58 -335 -109 -250 -141 -421 -400 -456
-693 -4 -33 -8 -292 -8 -575 -2 -508 -2 -516 -24 -572 -34 -86 -94 -156 -172
-201 -79 -46 -137 -55 -355 -55 -110 -1 -215 -1 -232 -1 l-33 -1 0 -257 0
-258 233 1 c127 0 250 -3 272 -8 153 -34 275 -158 303 -308 6 -33 10 -241 10
-530 -1 -261 2 -506 6 -545 6 -61 10 -86 30 -165 44 -173 201 -392 355 -494
189 -125 304 -157 579 -161 l192 -3 0 259 0 259 -147 1 c-204 1 -240 8 -321
63 -82 55 -146 141 -169 226 -8 31 -12 213 -16 750 -3 345 -6 424 -19 470 -26
87 -56 161 -88 218 l-31 53 -62 -49 c-152 -120 -216 -135 -279 -65 -21 23 -29
90 -15 121 6 13 51 51 99 84 213 146 354 368 387 608 7 54 12 279 14 610 l2
525 32 65 c52 105 129 176 231 211 47 17 84 20 220 21 l162 1 -2 256 -3 256
-140 0 c-77 0 -176 -3 -220 -8z"/>
<path d="M3130 4780 l0 -260 153 0 c165 0 229 -11 300 -53 84 -50 143 -124
176 -220 19 -55 20 -86 21 -575 1 -284 3 -535 6 -557 16 -117 57 -242 110
-332 l25 -44 62 48 c135 105 172 120 234 94 32 -13 62 -56 65 -93 4 -50 -23
-87 -96 -135 -91 -59 -196 -161 -251 -243 -44 -66 -108 -190 -98 -190 3 0 1
-6 -5 -12 -11 -14 -38 -121 -46 -183 -3 -22 -5 -272 -6 -555 -1 -567 -2 -577
-62 -677 -49 -81 -127 -139 -232 -173 -25 -8 -97 -13 -198 -13 l-158 0 0 -258
0 -258 188 4 c208 3 270 13 387 58 124 47 211 104 310 202 119 117 183 220
233 375 38 117 42 181 42 702 0 337 4 525 11 560 23 107 88 200 180 255 87 52
130 58 392 58 l237 0 0 257 0 258 -27 0 c-16 1 -120 1 -232 2 -113 0 -223 5
-245 10 -146 32 -263 144 -301 289 -9 33 -12 186 -13 540 0 444 -5 620 -17
639 -2 4 -7 21 -10 38 -34 197 -200 431 -392 554 -168 109 -303 143 -575 147
l-168 2 0 -261z"/>
<path d="M2522 3578 c-8 -11 -97 -286 -194 -603 -17 -55 -35 -104 -40 -110 -5
-6 -148 -10 -381 -10 -205 -1 -382 -4 -393 -8 -22 -8 -33 -31 -26 -57 2 -8
145 -114 317 -235 188 -131 314 -227 314 -236 1 -9 -6 -34 -15 -55 -9 -22 -29
-73 -44 -114 -15 -41 -67 -178 -114 -304 -47 -126 -86 -236 -86 -246 0 -22 20
-40 46 -40 12 0 102 57 201 128 98 70 191 135 206 145 16 10 36 25 45 32 46
39 188 135 199 135 7 0 76 -46 155 -102 79 -55 218 -154 309 -220 178 -126
211 -140 229 -94 7 20 -10 76 -96 303 -57 153 -118 313 -135 356 -17 44 -27
83 -23 87 12 11 392 282 522 372 111 77 132 108 95 137 -17 14 -67 16 -404 16
l-384 0 -12 40 c-6 22 -53 171 -103 330 -51 160 -95 299 -98 310 -12 48 -65
73 -90 43z"/>
</g>
</svg>
